HIERARCHY
ROOT joint_Root
{
	OFFSET 0.0 0.0 0.0
	CHANNELS 6 Xposition Yposition Zposition Zrotation Xrotation Yrotation 
	JOINT Hips
	{
		OFFSET -0.726466 93.3139 -2.00062
		CHANNELS 6 Xposition Yposition Zposition Zrotation Xrotation Yrotation 
		JOINT Spine
		{
			OFFSET 15.7357 0.0 0.0
			CHANNELS 6 Xposition Yposition Zposition Zrotation Xrotation Yrotation 
			JOINT Chest
			{
				OFFSET 8.98455 -0.406207 0.0
				CHANNELS 6 Xposition Yposition Zposition Zrotation Xrotation Yrotation 
				JOINT Neck
				{
					OFFSET 16.3773 0.0 0.0
					CHANNELS 6 Xposition Yposition Zposition Zrotation Xrotation Yrotation 
					JOINT Head
					{
						OFFSET 6.45672 0.0 0.0
						CHANNELS 6 Xposition Yposition Zposition Zrotation Xrotation Yrotation 
						End Site
						{
							OFFSET 0.0 0.0 0.0
						}
					}
				}
				JOINT Shoulder_L
				{
					OFFSET 12.9942 -0.242716 4.98039
					CHANNELS 6 Xposition Yposition Zposition Zrotation Xrotation Yrotation 
					JOINT UpperArm_L
					{
						OFFSET 5.34809 0.0 0.0
						CHANNELS 6 Xposition Yposition Zposition Zrotation Xrotation Yrotation 
						JOINT LowerArm_L
						{
							OFFSET 24.3286 1.87007e-05 0.0
							CHANNELS 6 Xposition Yposition Zposition Zrotation Xrotation Yrotation 
							JOINT Hand_L
							{
								OFFSET 22.2916 0.0 0.0
								CHANNELS 6 Xposition Yposition Zposition Zrotation Xrotation Yrotation 
								End Site
								{
									OFFSET 0.0 0.0 0.0
								}
							}
						}
					}
				}
				JOINT Shoulder_R
				{
					OFFSET 12.9945 -0.242716 -4.98039
					CHANNELS 6 Xposition Yposition Zposition Zrotation Xrotation Yrotation 
					JOINT UpperArm_R
					{
						OFFSET -5.34813 0.0 0.0
						CHANNELS 6 Xposition Yposition Zposition Zrotation Xrotation Yrotation 
						JOINT LowerArm_R
						{
							OFFSET -24.3289 0.000322201 0.0
							CHANNELS 6 Xposition Yposition Zposition Zrotation Xrotation Yrotation 
							JOINT Hand_R
							{
								OFFSET -22.2915 -0.000108084 0.0
								CHANNELS 6 Xposition Yposition Zposition Zrotation Xrotation Yrotation 
								End Site
								{
									OFFSET 0.0 0.0 0.0
								}
							}
						}
					}
				}
			}
		}
		JOINT UpperLeg_L
		{
			OFFSET -2.19248 -6.46944 0.0
			CHANNELS 6 Xposition Yposition Zposition Zrotation Xrotation Yrotation 
			JOINT LowerLeg_L
			{
				OFFSET 39.0811 0.0 -1.23785e-05
				CHANNELS 6 Xposition Yposition Zposition Zrotation Xrotation Yrotation 
				JOINT Foot_L
				{
					OFFSET 40.9854 0.0 -1.26872e-05
					CHANNELS 6 Xposition Yposition Zposition Zrotation Xrotation Yrotation 
					JOINT Toes_L
					{
						OFFSET 11.7543 0.0 0.0
						CHANNELS 6 Xposition Yposition Zposition Zrotation Xrotation Yrotation 
						End Site
						{
							OFFSET 0.0 0.0 0.0
						}
					}
				}
			}
		}
		JOINT UpperLeg_R
		{
			OFFSET -2.19251 6.46944 0.0
			CHANNELS 6 Xposition Yposition Zposition Zrotation Xrotation Yrotation 
			JOINT LowerLeg_R
			{
				OFFSET -39.0811 -0.00228153 -0.0401928
				CHANNELS 6 Xposition Yposition Zposition Zrotation Xrotation Yrotation 
				JOINT Foot_R
				{
					OFFSET -40.9854 0.0 0.0
					CHANNELS 6 Xposition Yposition Zposition Zrotation Xrotation Yrotation 
					JOINT Toes_R
					{
						OFFSET -11.7543 0.0 0.0
						CHANNELS 6 Xposition Yposition Zposition Zrotation Xrotation Yrotation 
						End Site
						{
							OFFSET 0.0 0.0 0.0
						}
					}
				}
			}
		}
	}
}
MOTION
Frames:	5
Frame Time:	0.0333333
0.000000 0.000000 0.000000 0.000000 0.000000 -0.000000 -0.969095 92.743300 1.016330 89.185000 -2.749380 1.684130 15.735700 0.000005 -0.000001 95.722700 86.671100 -95.956900 8.984550 -0.406207 -0.000000 -1.139960 0.681945 -0.461451 16.377300 -0.000001 -0.000001 3.297470 -2.735410 3.434480 6.456720 -0.000001 -0.000000 9.791210 -1.885820 -2.927210 12.994200 -0.242716 4.980390 -90.105800 0.322992 -71.859200 5.348090 -0.000007 -0.000001 -68.123300 38.390700 -12.706700 24.328600 0.000019 0.000005 3.793700 9.114050 -22.714800 22.291600 -0.000001 0.000005 6.216630 5.441800 -4.348740 12.994500 -0.242716 -4.980390 87.649800 7.644620 -72.853900 -5.348130 -0.000001 -0.000004 -66.151400 37.395100 -11.382500 -24.328900 0.000322 -0.000009 3.813210 10.423500 -20.228600 -22.291500 -0.000108 -0.000004 8.280590 5.302550 0.000876 -2.192480 -6.469440 -0.000000 -176.273000 -8.957840 -1.960060 39.081100 -0.000007 -0.000012 -0.078755 0.245277 17.801100 40.985400 -0.000006 -0.000013 -0.803137 3.922250 -64.179000 11.754300 -0.000000 0.000003 -0.000000 -0.000001 -16.577500 -2.192510 6.469440 -0.000001 178.546000 11.921300 -179.179000 -39.081100 -0.002282 -0.040193 -0.066425 0.266078 14.690400 -40.985400 0.000008 0.000006 0.717496 7.141220 -63.978400 -11.754300 -0.000006 -0.000006 -0.004462 -0.056166 -18.858000
0.000000 0.000000 0.000000 0.000000 0.000000 -0.000000 -0.958931 92.742800 1.026340 89.159900 -2.825820 1.645750 15.735700 0.000005 -0.000001 96.016200 86.682100 -96.226000 8.984550 -0.406207 -0.000000 -1.165430 0.711701 -0.412196 16.377300 -0.000001 -0.000001 3.103890 -2.675720 3.437740 6.456720 -0.000001 -0.000000 9.732300 -1.798970 -3.013120 12.994200 -0.242716 4.980390 -90.099800 0.303738 -71.806400 5.348090 -0.000007 -0.000001 -67.441700 38.073400 -13.279500 24.328600 0.000019 0.000005 4.159330 9.723520 -23.294700 22.291600 -0.000001 0.000005 5.420010 5.440980 -4.319990 12.994500 -0.242716 -4.980390 87.674700 7.531630 -72.787100 -5.348130 -0.000001 -0.000004 -65.523100 37.221500 -11.706700 -24.328900 0.000322 -0.000009 4.112300 10.302400 -21.906200 -22.291500 -0.000108 -0.000004 7.022590 5.295120 0.207850 -2.192480 -6.469440 -0.000000 -176.260000 -8.989480 -1.989260 39.081100 -0.000007 -0.000012 -0.079088 0.246053 17.818800 40.985400 -0.000006 -0.000013 -0.804015 3.879660 -64.202400 11.754300 -0.000000 0.000003 -0.000001 -0.000008 -16.577800 -2.192510 6.469440 -0.000001 178.569000 11.877700 -179.210000 -39.081100 -0.002282 -0.040193 -0.067118 0.269130 14.669000 -40.985400 0.000008 0.000006 0.707641 7.153120 -63.962400 -11.754300 -0.000006 -0.000006 -0.004817 -0.059680 -19.001200
0.000000 0.000000 0.000000 0.000000 0.000000 -0.000000 -0.947951 92.755100 1.025930 89.155800 -2.910860 1.603470 15.735700 0.000005 -0.000001 96.275300 86.687900 -96.474000 8.984550 -0.406207 -0.000000 -1.180160 0.739433 -0.389737 16.377300 -0.000001 -0.000001 2.932120 -2.628230 3.420930 6.456720 -0.000001 -0.000000 9.470900 -1.650470 -3.008750 12.994200 -0.242716 4.980390 -90.116300 0.350963 -71.665600 5.348090 -0.000007 -0.000001 -66.180000 36.965000 -14.181000 24.328600 0.000019 0.000005 5.285850 11.444800 -24.994800 22.291600 -0.000001 0.000005 4.079400 5.444200 -4.431850 12.994500 -0.242716 -4.980390 87.655500 7.499400 -72.584000 -5.348130 -0.000001 -0.000004 -64.114500 36.407200 -12.425200 -24.328900 0.000322 -0.000009 4.733940 10.215300 -25.034700 -22.291500 -0.000108 -0.000004 5.039180 5.282490 0.560458 -2.192480 -6.469440 -0.000000 -176.274000 -9.033150 -1.965160 39.081100 -0.000007 -0.000012 -0.078673 0.246410 17.707000 40.985400 -0.000006 -0.000013 -0.808513 3.821910 -64.154100 11.754300 -0.000000 0.000003 -0.000001 -0.000010 -16.577900 -2.192510 6.469440 -0.000001 178.590000 11.758200 -179.204000 -39.081100 -0.002282 -0.040193 -0.065612 0.265723 14.545000 -40.985400 0.000008 0.000006 0.693353 7.119530 -63.889200 -11.754300 -0.000006 -0.000006 -0.004685 -0.058380 -18.948300
0.000000 0.000000 0.000000 0.000000 0.000000 -0.000000 -0.935900 92.763300 0.984841 89.144300 -2.898470 1.549010 15.735700 0.000005 -0.000001 96.087800 86.691200 -96.273300 8.984550 -0.406207 -0.000000 -1.184560 0.716149 -0.363413 16.377300 -0.000001 -0.000001 2.875630 -2.589990 3.437210 6.456720 -0.000001 -0.000000 8.907420 -1.530820 -3.111640 12.994200 -0.242716 4.980390 -90.194400 0.577758 -71.401600 5.348090 -0.000007 -0.000001 -63.547200 35.290400 -16.083000 24.328600 0.000019 0.000005 6.704090 12.867900 -27.823900 22.291600 -0.000001 0.000005 2.707710 5.442840 -4.386190 12.994500 -0.242716 -4.980390 87.647500 7.386590 -72.278800 -5.348130 -0.000001 -0.000004 -62.021300 34.731300 -13.750500 -24.328900 0.000322 -0.000009 5.347680 9.563240 -29.405500 -22.291500 -0.000108 -0.000004 3.701830 5.273850 0.794782 -2.192480 -6.469440 -0.000000 -176.281000 -9.027390 -2.046360 39.081100 -0.000007 -0.000012 -0.078555 0.246330 17.687600 40.985400 -0.000006 -0.000013 -0.801159 3.823860 -64.110200 11.754300 -0.000000 0.000003 -0.000000 -0.000005 -16.577700 -2.192510 6.469440 -0.000001 178.630000 11.647600 -179.262000 -39.081100 -0.002282 -0.040193 -0.063831 0.259943 14.487000 -40.985400 0.000008 0.000006 0.673473 7.018610 -63.830500 -11.754300 -0.000006 -0.000006 -0.004691 -0.058445 -18.950900
0.000000 0.000000 0.000000 0.000000 0.000000 -0.000000 -0.928126 92.773600 0.907491 89.163800 -2.795870 1.529730 15.735700 0.000005 -0.000001 96.100000 86.684600 -96.287300 8.984550 -0.406207 -0.000000 -1.171640 0.719059 -0.367078 16.377300 -0.000001 -0.000001 2.894740 -2.567090 3.457100 6.456720 -0.000001 -0.000000 8.324440 -1.506960 -3.207270 12.994200 -0.242716 4.980390 -90.251800 0.741831 -71.248800 5.348090 -0.000007 -0.000001 -60.572600 31.736700 -18.684800 24.328600 0.000019 0.000005 7.812390 13.187700 -31.023000 22.291600 -0.000001 0.000005 2.534670 5.443840 -4.420380 12.994500 -0.242716 -4.980390 87.663400 7.196660 -71.959100 -5.348130 -0.000001 -0.000004 -59.272400 32.130100 -15.569600 -24.328900 0.000322 -0.000009 6.104430 8.770190 -35.052700 -22.291500 -0.000108 -0.000004 3.567970 5.271000 0.872182 -2.192480 -6.469440 -0.000000 -176.321000 -9.004050 -2.121150 39.081100 -0.000007 -0.000012 -0.076957 0.241807 17.654000 40.985400 -0.000006 -0.000013 -0.779005 3.873040 -64.028900 11.754300 -0.000000 0.000003 -0.000000 -0.000003 -16.577600 -2.192510 6.469440 -0.000001 178.616000 11.685200 -179.322000 -39.081100 -0.002282 -0.040193 -0.066214 0.269442 14.472700 -40.985400 0.000008 0.000006 0.650246 6.928950 -63.773800 -11.754300 -0.000006 -0.000006 -0.004780 -0.059319 -18.986500
